<svg data-v-6805eed4="" version="1.0" xmlns="http://www.w3.org/2000/svg" xmlns:xlink="http://www.w3.org/1999/xlink" width="100%" height="100%" viewBox="0 0 340.000000 250.000000" preserveAspectRatio="xMidYMid meet" color-interpolation-filters="sRGB" style="margin: auto;"> <rect data-v-6805eed4="" x="0" y="0" width="100%" height="100%" fill="#FFD5D5" fill-opacity="0" class="background"></rect> <rect data-v-6805eed4="" x="0" y="0" width="100%" height="100%" fill="url(#watermark)" fill-opacity="1" class="watermarklayer"></rect> <g data-v-6805eed4="" fill="#FFFFFF" class="linesvg" transform="translate(124.21739196777344,79.21739196777344)"><g class="tp-name" opacity="1" transform="matrix(1,0,0,1,0,0)"><g><rect fill-opacity="0" stroke="#FFFFFF" stroke-width="2" x="0" y="0" height="91.56521267361111" width="91.56521267361111" rx="45.78260633680556"></rect> <g fill="#FFFFFF" transform="translate(22.955679151746963,6)"><g transform="scale(1)"><path d="M6-65.30L6-65.30Q6.80-65.50 8.45-65.45Q10.10-65.40 11.85-64.75Q13.60-64.10 14.70-62.60L14.70-62.60Q15.30-62 15.20-58.95Q15.10-55.90 14.55-51.45Q14-47 13.30-42.10L13.30-42.10Q12.70-37.70 12.20-33.65Q11.70-29.60 11.50-26.50L11.50-26.50Q16.70-42.60 20.25-52.65Q23.80-62.70 26.20-67.95Q28.60-73.20 30.40-74.95Q32.20-76.70 33.90-76.20L33.90-76.20Q33.90-76.20 35.20-75.60Q36.50-75 38.25-74Q40-73 41.40-71.80Q42.80-70.60 43.10-69.40L43.10-69.40Q44.10-67.70 43.55-60.55Q43-53.40 41.45-43.50Q39.90-33.60 37.85-23.65Q35.80-13.70 33.95-6.40Q32.10 0.90 31 2.80L31 2.80Q30.20 3.20 28.30 3.25Q26.40 3.30 24.60 2.80Q22.80 2.30 22.40 1L22.40 1Q22.10-0.30 22.60-4.20Q23.10-8.10 24.20-13.80Q25.30-19.50 26.60-26.20L26.60-26.20Q28.30-34.70 29.90-43.50Q31.50-52.30 32.50-59.90Q33.50-67.50 33.40-72.40L33.40-72.40Q32.60-73.50 30.70-69.80Q28.80-66.10 26.25-59.30Q23.70-52.50 20.90-44.20Q18.10-35.90 15.55-27.75Q13-19.60 11.10-13.25Q9.20-6.90 8.40-3.90L8.40-3.90Q8.20-3.60 6.70-3.85Q5.20-4.10 3.20-4.80Q1.20-5.50-0.30-6.60Q-1.80-7.70-1.90-9L-1.90-9Q-2-15.30-0.95-23.70Q0.10-32.10 1.60-40.90Q3.10-49.70 4.50-57.20L4.50-57.20Q5.40-61.70 6-65.30Z" transform="translate(1.9085000000000003, 76.31111111111112)"></path></g></g></g></g> <!----> <!----></g><defs v-gra="od"></defs></svg>